<?xml version="1.0" encoding="utf-8"?>
<!-- Generator: Adobe Illustrator 27.5.0, SVG Export Plug-In . SVG Version: 6.00 Build 0)  -->
<svg version="1.1" id="Ñëîé_1" xmlns="http://www.w3.org/2000/svg" xmlns:xlink="http://www.w3.org/1999/xlink" x="0px" y="0px"
	 viewBox="0 0 2600 2000" style="enable-background:new 0 0 2600 2000;" xml:space="preserve">
<rect id="_x36_" style="fill:#FFFFFF;" width="2600" height="2000"/>
<g>
	<g id="_x35_">
		<path style="fill:#CFDDF9;" d="M123.15,1578.901c0,0-14.757,74.05,53.626,93.289c93.534,26.315,642.566,95.455,509.187,147.994
			c-75.293,29.658,38.436,69.931,405.167,84.76c366.731,14.829,996.012-43.276,784.394-129.248
			c-211.618-85.972,652.881-17.968,600.363-196.795H123.15z"/>
		<path style="fill:#D4E8FF;" d="M538.367,1574.811c0,0-276.994-679.381-77.66-830.662
			c133.236-101.117,274.459,121.79,443.019,3.867c150.066-104.984-59.153-369.453,191.236-438.638
			c263.181-72.72,478.794,516.197,699.623,434.771c267.961-98.806,534.511,101.772,304.163,831.959L538.367,1574.811z"/>
		<path style="fill:#DCE6FF;" d="M321.64,1516.565c-4.65-13.505-9.251-27.498-13.674-41.59l10.901-3.073
			c4.395,14.001,8.965,27.903,13.584,41.318L321.64,1516.565z M2271.847,1499.125l-11.287-1.321
			c1.874-14.375,3.654-28.853,5.29-43.031l11.306,1.172C2275.514,1470.173,2273.727,1484.7,2271.847,1499.125z M295.41,1433.082
			c-3.981-13.927-7.841-28.114-11.474-42.165l11.046-2.566c3.612,13.967,7.449,28.068,11.406,41.912L295.41,1433.082z
			 M2281.811,1412.695l-11.322-1.014c1.439-14.433,2.771-28.952,3.96-43.152l11.337,0.851
			C2284.594,1383.635,2283.257,1398.208,2281.811,1412.695z M273.543,1348.504c-3.285-14.189-6.41-28.536-9.29-42.645l11.166-2.047
			c2.861,14.02,5.968,28.279,9.232,42.38L273.543,1348.504z M2289.051,1326.008l-11.351-0.681
			c0.963-14.423,1.808-28.972,2.509-43.241l11.36,0.502C2290.865,1296.916,2290.018,1311.525,2289.051,1326.008z M256.103,1263.003
			c-2.529-14.363-4.871-28.846-6.959-43.049l11.264-1.488c2.075,14.107,4.401,28.494,6.913,42.763L256.103,1263.003z
			 M2293.306,1239.128l-11.369-0.313c0.444-14.487,0.75-29.052,0.909-43.289l11.373,0.114
			C2294.059,1209.943,2293.753,1224.575,2293.306,1239.128z M243.437,1176.731c-1.696-14.508-3.171-29.098-4.387-43.367
			l11.336-0.868c1.207,14.163,2.671,28.646,4.355,43.048L243.437,1176.731z M2282.894,1152.234
			c-0.134-14.498-0.425-29.058-0.864-43.276l11.369-0.315c0.441,14.291,0.733,28.925,0.868,43.496L2282.894,1152.234z
			 M236.068,1089.883c-0.754-14.593-1.255-29.244-1.487-43.547l11.372-0.167c0.23,14.183,0.726,28.713,1.474,43.186
			L236.068,1089.883z M2280.202,1065.721c-0.781-14.479-1.741-29.007-2.853-43.18l11.341-0.8c1.119,14.255,2.084,28.868,2.87,43.429
			L2280.202,1065.721z M246.061,1002.967l-11.371-0.221c0.317-14.632,0.927-29.287,1.816-43.558l11.354,0.634
			C246.979,973.956,246.374,988.472,246.061,1002.967z M2273.404,979.448c-1.519-14.476-3.24-28.935-5.113-42.975l11.283-1.352
			c1.886,14.134,3.617,28.689,5.147,43.26L2273.404,979.448z M251.465,916.79l-11.316-1.077c1.545-14.577,3.428-29.146,5.598-43.303
			l11.255,1.55C254.856,887.961,252.993,902.371,251.465,916.79z M2261.923,893.662c-2.366-14.385-4.964-28.716-7.72-42.594
			l11.176-1.995c2.78,13.989,5.398,28.432,7.782,42.928L2261.923,893.662z M916.852,892.141
			c-15.803-2.362-27.234-9.18-43.068-20.954l7.189-8.353c13.871,10.288,23.89,16.459,37.091,18.589L916.852,892.141z
			 M956.31,866.495l-10.128-4.902c5.206-9.662,9.808-23.071,13.68-39.853l11.11,2.302
			C966.836,841.975,962.04,855.862,956.31,866.495z M840.405,840.272c-9.06-9.562-18.742-20.568-29.6-33.645l8.937-6.666
			c10.704,12.892,20.231,23.722,29.125,33.109L840.405,840.272z M264.599,831.431l-11.165-2.054
			c2.946-14.387,6.28-28.733,9.909-42.64l11.041,2.588C270.8,803.056,267.508,817.222,264.599,831.431z M2245.01,808.754
			c-3.367-14.237-7.001-28.351-10.798-41.95l10.996-2.758c3.834,13.731,7.501,27.98,10.899,42.35L2245.01,808.754z M978.625,780.659
			l-11.28-1.376c1.747-12.867,3.312-26.956,4.785-43.075l11.331,0.931C981.974,753.408,980.392,767.643,978.625,780.659z
			 M782.95,771.898c-9.245-11.833-18.834-24.341-27.096-35.136l9.206-6.33c8.246,10.774,17.815,23.256,27.03,35.051L782.95,771.898z
			 M1615.6,771.011c-8.857,0-17.547-2.508-25.829-7.454l6.064-9.12c12.44,7.443,24.679,7.46,37.893,1.523l4.893,9.73
			C1630.808,769.222,1623.063,771.011,1615.6,771.011z M286.48,747.786l-10.876-3.152c4.519-14.005,9.476-27.935,14.736-41.401
			l10.666,3.741C295.822,720.247,290.935,733.979,286.48,747.786z M1675.812,737.51l-8.356-7.312
			c8.623-8.852,17.867-19.77,28.26-33.381l9.214,6.32C1694.268,717.098,1684.745,728.341,1675.812,737.51z M1557.433,730.098
			c-7.36-10.761-14.654-23.435-22.298-38.743l10.28-4.611c7.427,14.872,14.479,27.135,21.563,37.491L1557.433,730.098z
			 M2221.647,725.326c-4.581-13.967-9.47-27.715-14.531-40.864l10.685-3.694c5.123,13.311,10.071,27.226,14.706,41.358
			L2221.647,725.326z M728.901,701.62c-10.405-13.478-19.077-24.543-27.29-34.822l9.067-6.507
			c8.252,10.327,16.958,21.437,27.402,34.964L728.901,701.62z M986.883,693.609l-11.349-0.696
			c0.862-12.629,1.739-26.823,2.681-43.395l11.356,0.58C988.627,666.708,987.747,680.94,986.883,693.609z M318.053,667.073
			l-10.405-4.352c6.243-13.402,12.897-26.562,19.966-39.431l10.085,4.983C330.743,640.936,324.197,653.885,318.053,667.073z
			 M1730.984,667.071l-9.503-5.923c8.082-11.646,16.431-23.985,24.881-36.449l9.568,5.827
			C1747.459,643.023,1739.102,655.372,1730.984,667.071z M1516.827,651.13c-5.152-12.247-10.475-25.608-16.274-40.848l10.698-3.657
			c5.757,15.126,11.036,28.378,16.141,40.513L1516.827,651.13z M2190.386,644.407c-6.114-13.499-12.583-26.612-19.224-38.974
			l10.136-4.891c6.753,12.571,13.328,25.899,19.54,39.613L2190.386,644.407z M673.53,632.642
			c-10.32-12.141-19.925-22.947-29.367-33.035l8.508-7.153c9.561,10.217,19.281,21.15,29.715,33.425L673.53,632.642z
			 M991.938,606.616l-11.359-0.543c0.766-14.401,1.527-28.809,2.339-43.47l11.357,0.565
			C993.464,577.822,992.703,592.222,991.938,606.616z M1780.864,594.12l-9.488-5.944c9.502-13.627,18.001-25.415,25.983-36.037
			l9.263,6.253C1798.718,568.911,1790.292,580.598,1780.864,594.12z M360.254,591.078l-9.586-5.801
			c8.937-13.266,18.152-25.247,27.389-35.61l8.688,6.956C377.833,566.621,368.921,578.214,360.254,591.078z M1485.368,569.148
			c-5.216-14.486-10.333-28.981-14.651-41.249l10.789-3.411c4.312,12.251,9.421,26.722,14.626,41.177L1485.368,569.148z
			 M612.894,568.394c-11.624-10.726-23.054-20.202-33.971-28.164l6.936-8.543c11.265,8.216,23.031,17.967,34.97,28.983
			L612.894,568.394z M2149.08,567.933c-8.149-12.604-16.694-24.524-25.396-35.43l9.07-6.502c8.926,11.185,17.682,23.398,26.022,36.3
			L2149.08,567.933z M418.645,527.296l-6.898-8.57c13.582-9.82,27.717-16.901,42.013-21.047l3.328,10.308
			C444.085,511.757,431.151,518.253,418.645,527.296z M1834.053,523.999l-8.835-6.787c10.666-12.473,20.773-23.206,30.898-32.812
			l8.045,7.618C1854.317,501.358,1844.469,511.819,1834.053,523.999z M996.824,519.76l-11.353-0.641
			c0.985-15.668,1.962-29.897,2.989-43.499l11.344,0.769C998.781,489.949,997.806,504.136,996.824,519.76z M541.321,517.504
			c-14.192-6.693-28.151-10.966-41.489-12.698l1.544-10.68c14.566,1.892,29.711,6.51,45.012,13.727L541.321,517.504z
			 M2094.426,500.079c-10.949-10.632-22.286-20.017-33.695-27.893l6.697-8.713c11.922,8.23,23.744,18.013,35.138,29.076
			L2094.426,500.079z M1456.21,486.653c-5.658-16.038-10.32-29.115-14.673-41.154l10.758-3.495
			c4.364,12.065,9.035,25.166,14.701,41.23L1456.21,486.653z M1898.198,464.503l-6.518-8.832
			c13.987-9.274,28.114-16.143,41.991-20.414l3.512,10.252C1924.38,449.45,1911.263,455.841,1898.198,464.503z M2022.293,451.297
			c-14.086-5.631-28.344-9.116-42.378-10.359l1.057-10.733c15.193,1.345,30.582,5.1,45.74,11.159L2022.293,451.297z
			 M1003.443,433.113l-11.329-0.954c1.417-15.124,2.959-29.73,4.583-43.413l11.302,1.205
			C1006.385,403.552,1004.852,418.073,1003.443,433.113z M1426.405,404.501c-5.496-14.538-10.674-27.828-15.833-40.628l10.625-3.846
			c5.187,12.87,10.392,26.228,15.915,40.838L1426.405,404.501z M1013.789,346.971l-11.256-1.542
			c2.3-15.092,4.829-29.605,7.516-43.138l11.177,1.993C1018.569,317.667,1016.067,332.029,1013.789,346.971z M1393.677,323.627
			c-6.111-13.932-12.271-27.262-18.31-39.619l10.32-4.53c6.101,12.485,12.323,25.947,18.492,40.011L1393.677,323.627z
			 M1030.883,262.103l-11.034-2.612c3.967-15.052,8.34-29.23,12.998-42.141l10.761,3.487
			C1039.054,233.461,1034.772,247.345,1030.883,262.103z M1355.169,245.323c-7.48-13.352-15.121-25.887-22.711-37.255l9.611-5.764
			c7.743,11.599,15.53,24.371,23.146,37.964L1355.169,245.323z M1060.688,181.346l-10.199-4.771
			c7.468-14.341,15.749-27.021,24.615-37.689l8.934,6.67C1075.662,155.635,1067.806,167.676,1060.688,181.346z M1306.391,173.107
			c-9.937-11.807-20.194-22.267-30.486-31.087l7.629-7.995c10.746,9.21,21.427,20.098,31.748,32.36L1306.391,173.107z
			 M1115.768,117.618l-6.131-9.079c13.473-8.172,28.316-13.487,44.119-15.794l1.731,10.653
			C1141.261,105.476,1127.898,110.259,1115.768,117.618z M1240.022,117.611c-13.248-6.769-27.049-11.397-41.018-13.755l1.994-10.613
			c15.161,2.559,30.107,7.565,44.421,14.879L1240.022,117.611z"/>
		<path style="fill:#EEF7FF;" d="M2350.78,1273.133c-94.378-13.259-85.834,186.001-220.364,186.001
			c-123,0-188.819-445.187-323.794-354.642c-542.631,364.011-120.429-255.419-485.3-267.527
			c-164.984-5.475-274.922,161.261-315.463,456.473c-58.767,266.882-195.054-203.555-335.309-159.815
			c-89.139,27.799-78.93,325.511-201.93,325.511c-134.529,0-125.667-167.556-220.045-154.297
			c-101.613,14.275-125.426,274.063-125.426,274.063h2352.737C2475.886,1578.901,2452.393,1287.408,2350.78,1273.133z"/>
		<path style="fill:#DCE6FF;" d="M2260.345,1482.271c-86.826-5.662-72.657,45.488-196.421,45.488
			c-113.156,0-110.047-114.634-185.771-138.997c-139.448-44.866-254.412,182.205-308.476,68.243
			c-102.682-302.391-402.159-454.038-540.319,0c-54.064,113.962-180.491-89.387-308.476-68.243
			c-78.78,13.015-72.614,138.997-185.771,138.997c-123.764,0-109.595-51.15-196.421-45.488
			c-93.482,6.096-121.404,96.63-121.404,96.63h2164.461C2381.749,1578.901,2353.827,1488.366,2260.345,1482.271z"/>
	</g>
	<g id="_x34_">
		<polygon style="fill:#23659B;" points="1482.948,1100.755 1476.454,1186.576 1006.876,1186.576 1006.474,1424.892 
			432.894,1425.294 431.235,1642.85 458.632,1670.248 2125.142,1670.248 2125.142,1120 2099.404,1094.261 		"/>
		<polygon style="fill:#1D3F70;" points="407.156,1399.556 458.632,1451.032 458.632,1670.248 407.156,1618.772 		"/>
		<polygon style="fill:#1D3F70;" points="981.138,1160.838 1032.614,1212.314 1032.614,1451.032 981.138,1399.556 		"/>
		<polygon style="fill:#1D3F70;" points="1450.716,1068.523 1502.192,1120 1502.192,1212.314 1450.716,1160.838 		"/>
		<polygon style="fill:#3A72AA;" points="2073.666,1068.523 2125.142,1120 1502.192,1120 1450.716,1068.523 		"/>
		<polygon style="fill:#3A72AA;" points="981.138,1160.838 1032.614,1212.314 1502.192,1212.314 1450.716,1160.838 		"/>
		<polygon style="fill:#3A72AA;" points="407.156,1399.556 458.632,1451.032 1032.614,1451.032 981.138,1399.556 		"/>
	</g>
	<g id="_x33_">
		<path style="fill:#F99370;" d="M1562.044,632.594c2.236,3.436-4.396,7.484-6.129,10.363c6.282-0.036,11.887-1.344,11.921-1.32
			c6.946-3.507,13.689-7.383,20.26-11.565c11.614-0.089,8.085,26.382-15.276,33.862c-8.401,2.69-16.591,6.033-30.33,3.91
			c-4.503-0.696-5.762-13.375-3.003-16.898C1544.316,647.163,1558.703,629.367,1562.044,632.594z"/>
		<path style="fill:#E57D61;" d="M1041.086,767.193c1.508,3.812,8.882,0.148,12.445,1.29c-3.664,5.103-8.42,8.625-8.42,8.667
			c-6.879,3.636-13.942,6.893-21.155,9.832c-6.792,9.421,16.839,21.859,36.457,7.135c7.056-5.295,14.52-10.04,20.739-22.475
			c2.038-4.075-4.334-13.027-8.809-13.03C1065.34,758.61,1040.387,762.601,1041.086,767.193z"/>
		<path style="fill:#F99370;" d="M1349.333,635.424c32.362,15.093,65.996,32.36,102.128,34.65
			c21.119-0.343,42.353-5.439,62.66-11.493c8.437-2.538,16.903-5.402,25.203-8.392c11.42-4.445,19.894,12.379,9.67,18.93
			c-28.293,19.286-60.649,34.076-94.811,38.86c-25.007,2.483-49.421-3.172-72.878-10.297c-18.272-5.767-35.947-12.763-53.032-21.345
			C1301.194,662.178,1321.967,621.593,1349.333,635.424z"/>
		<path style="fill:#3A72AA;" d="M1546.308,670.926c0,0-2.557,2.214-7.164,5.68c-16.472,12.363-59.163,40.598-104.788,40.126
			c-22.083-0.223-41.644-2.634-57.421-5.551c-2.359-0.438-4.624-0.884-6.812-1.338c-4.35-0.901-8.348-1.819-11.968-2.72
			c-3.2-0.789-6.083-1.561-8.656-2.299c-9.163-2.591-14.25-4.581-14.25-4.581c9.48-42.622,2.986-67.991-2.737-80.551
			c-2.985-6.555-5.765-9.617-5.954-9.815c0-0.009,0-0.009,0-0.009c0.026,0.009,0.052,0.017,0.077,0.026
			c0.043,0.017,0.077,0.034,0.12,0.06c0.695,0.266,3.08,1.235,6.795,2.805c10.836,4.599,32.936,14.388,56.984,27.385
			c25.369,13.718,64.096,32.55,137.784,13.264c2.677-0.695,5.405-1.433,8.193-2.214
			C1536.511,651.194,1535.035,662.681,1546.308,670.926z"/>
		<path style="fill:#F99370;" d="M1550.906,1091.732l-65.162,2.35c-2.976,0.107-5.412-2.302-5.371-5.276
			c0.02-1.438,0.129-3.138,0.395-5.074c0.746-5.461,0.94-10.978,0.643-16.478c-0.14-2.633-0.394-5.262-0.76-7.879l-6.34-45.543
			c-0.423-3.039,1.878-5.777,4.948-5.888l28.759-1.037c3.117-0.112,5.627,2.53,5.35,5.633l-3.728,41.84
			c-0.816,9.154,5.368,17.441,14.371,19.338c6.415,1.352,12.907,2.066,17.568,3.087c0.601,0.137,1.202,0.273,1.781,0.418l0.007,0
			c4.947,1.219,9.061,2.904,11.525,6.254C1557.361,1086.833,1555.072,1091.581,1550.906,1091.732z"/>
		<path style="fill:#EB5648;" d="M1478.423,1087.586c0.291,3.185,2.006,6.768,5.704,6.555c0,0,67.591-2.438,67.591-2.438
			c3.493-0.121,5.844-3.707,4.486-6.923c-2.89-7.275-12.606-17.922-44.609-18.571c-4.57,0.611-14.97,2.553-30.184,1.046
			C1481.411,1067.255,1476.512,1075.599,1478.423,1087.586z"/>
		<path style="fill:#CE3932;" d="M1556.205,1084.78l-77.781,2.806c0.372,2.361,1.111,4.641,2.376,6.675l70.919-2.558
			c3.445-0.124,5.791-3.604,4.532-6.808C1556.235,1084.857,1556.22,1084.819,1556.205,1084.78z"/>
		<path style="fill:#1D3F70;" d="M1534.786,1035.969c0.336,8.806,0.376,14.029,0.376,14.029s-32.439,14.166-65.855,5.18
			c-2.497-0.662-4.995-1.465-7.486-2.41c-0.934-3.745-1.819-8.003-2.689-12.636c-7.392-39.374-13.527-106.138-36.56-123.679
			c-23.889-17.154-68.129-14.812-95.452-16.115c-0.766-0.036-1.524-0.072-2.262-0.116c-40.937-2.379-72.984-31.847-98.41-76.932
			c-3.752-6.638,43.948-12.933,43.948-12.933l110.301-9.195c28.39,7.078,78.521,17.217,110.825,52.236
			C1526.087,890.881,1533.292,997.529,1534.786,1035.969z"/>
		<path style="fill:#103663;" d="M1469.313,1055.177l-0.007,0c-2.497-0.662-4.995-1.465-7.486-2.41
			c-8.875-35.622-13.507-116.71-39.249-136.315c-23.889-17.154-68.129-14.812-95.452-16.115l8.888-19.276
			c0,0,74.991,0.858,99.931,34.154C1460.884,948.504,1469.313,1055.177,1469.313,1055.177z"/>
		<path style="fill:#F99370;" d="M1317.898,1203.733l-64.798-7.265c-2.96-0.332-5.015-3.074-4.536-6.009
			c0.232-1.419,0.589-3.085,1.137-4.96c1.542-5.292,2.545-10.72,3.061-16.203c0.249-2.625,0.827-29.025,0.85-31.667
			c0,0,33.398-3.344,32.668-0.316l-2.389,35.587c3.016,8.026,1.43,5.858,10.056,9.059c6.146,2.281,12.462,3.943,16.922,5.639
			c0.574,0.224,1.149,0.447,1.7,0.676l0.007,0.001c4.714,1.934,8.535,4.206,10.479,7.883
			C1325.004,1199.837,1322.041,1204.197,1317.898,1203.733z"/>
		<path style="fill:#EB5648;" d="M1246.815,1188.965c-0.181,3.193,0.989,6.99,4.677,7.323c0,0,67.214,7.536,67.214,7.536
			c3.473,0.394,6.326-2.807,5.456-6.187c-1.788-7.621-9.831-19.582-41.391-24.934c-4.61-0.068-15.183,0.322-30.009-3.408
			C1252.762,1169.295,1246.689,1176.827,1246.815,1188.965z"/>
		<path style="fill:#CE3932;" d="M1324.162,1197.637l-77.348-8.672c0.02,2.39,0.416,4.754,1.368,6.953l70.523,7.907
			c3.425,0.384,6.258-2.712,5.484-6.067C1324.181,1197.717,1324.172,1197.677,1324.162,1197.637z"/>
		<path style="fill:#F99370;" d="M1326.534,609.847c3.05-13.718,2.966-34.029,1.891-42.434
			c-1.795-16.626-28.271-13.034-25.653,3.398c0.887-0.436,0.469,29.308-2.226,37.295c-16.15,3.054,26.647,30.029,38.943,24.356
			C1347.243,628.883,1326.534,609.847,1326.534,609.847z"/>
		<path style="fill:#E57D61;" d="M1302.665,569.443c0.01,0.19,0.013,0.388,0.031,0.579c0.018,0.267,0.043,0.527,0.077,0.788
			c0.642-0.334,0.621,16.099-0.598,27.899c10.574,6.203,23.182,5.281,25.496,5.053c1.8-12.422,1.475-28.088,1.067-33.977
			c-0.158-1.387-0.293-2.204-0.313-2.373c-0.052-0.377-0.119-0.747-0.202-1.112c-0.85-3.83-3.362-6.933-6.656-8.649
			c-0.007-0.001-0.007-0.001-0.007-0.001c-2.287-1.186-4.941-1.698-7.686-1.334c-2.715,0.367-5.121,1.547-7,3.267
			c-0.083,0.067-0.159,0.142-0.234,0.21C1304.093,562.246,1302.563,565.714,1302.665,569.443z"/>
		<path style="fill:#8E4A35;" d="M1285.291,546.815c0,0,0.233-13.972,4.591-23.606l7.992,3.913L1285.291,546.815z"/>
		<path style="fill:#1D3F70;" d="M1336.473,801.39c2.662,69.572-5.026,167.204-10.634,212.674
			c-5.481,44.438-14.946,103.59-19.259,129.947l-0.007,0c-1.402,8.576-2.26,13.679-2.26,13.679s-33.704,16.102-65.705-4.035
			c0,0,0.174-5.058,0.39-13.604c0.705-27.276,1.861-90.057-0.715-136.873c-2.513-45.674-33.26-124.363-11.836-179.888
			L1336.473,801.39z"/>
		<path style="fill:#F99370;" d="M1285.081,587.694c12.462,12.142,32.015,13.965,46.113,5.898l0.005,0.001
			c1.047-0.652,2.039-1.364,2.986-2.149l0.014,0.002c44.574-44.916-16.034-118.372-43.639-54.228
			C1281.227,555.28,1264.969,564.967,1285.081,587.694z"/>
		<path style="fill:#C16256;" d="M1304.274,551.286c-0.449-0.879-0.099-1.955,0.781-2.403c0.88-0.448,1.957-0.098,2.406,0.781
			c0.449,0.879,0.099,1.955-0.781,2.403C1305.799,552.515,1304.722,552.165,1304.274,551.286z"/>
		<path style="fill:#C16256;" d="M1289.232,548.779c-0.449-0.879-0.099-1.955,0.781-2.403c0.88-0.448,1.957-0.098,2.406,0.781
			c0.449,0.879,0.099,1.955-0.781,2.403C1290.758,550.007,1289.681,549.658,1289.232,548.779z"/>
		<path style="fill:#C16256;" d="M1293.906,564.249c1.048,0.123,2.118,0.065,3.021-0.225c0.357-0.114,0.551-0.496,0.437-0.85
			c-0.114-0.358-0.501-0.547-0.851-0.437c-2.267,0.728-5.482-0.404-5.925-1.43c-0.155-0.361,0.33-0.719,0.766-0.955
			c3.835-2.08,6.4-9.338,6.507-9.646c0.123-0.353-0.063-0.739-0.416-0.861c-0.365-0.128-0.74,0.064-0.862,0.416
			c-0.025,0.07-2.5,7.071-5.875,8.902c-1.84,0.998-1.566,2.204-1.364,2.677C1289.872,563.071,1291.85,564.007,1293.906,564.249z"/>
		<path style="fill:#E57D61;" d="M1292.629,532.782c9.697-5.115,27.288-0.47,35.923-0.542c0,0-1.828,14.767,13.083,25.279
			c1.267,13.577,3.503,19.504-10.441,36.072l0.005,0.001c1.047-0.652,2.039-1.364,2.986-2.149l0.014,0.002
			C1377.123,548.617,1321.16,475.571,1292.629,532.782z"/>
		<path style="fill:#8E4A35;" d="M1285.282,503.361c5.563-10.977,22.072-16.951,36.334-3.389
			c10.98,10.442,22.833,10.355,22.597,21.357c22.024,9.988,11.106,34.242,11.106,34.242l-11.037-1.301
			c-12.613-10.196-12.236-25.191-12.236-25.191l0.003-0.002c-2.812,0.139-5.772,0.02-8.394-0.648
			c-8.124-2.072-20.144-3.071-29.303,0.305C1285.193,532.109,1279.066,515.63,1285.282,503.361z"/>
		<path style="fill:#F99370;" d="M1356.895,564.467c-1.191,5.667-5.857,9.485-10.423,8.527c-4.565-0.958-7.301-6.329-6.11-11.996
			c1.191-5.667,5.857-9.485,10.423-8.527C1355.35,553.428,1358.085,558.799,1356.895,564.467z"/>
		<path style="fill:#C16256;" d="M1346.056,556.965c0.177-0.069,4.36-1.686,6.714,0.49c0.6,0.553,1,1.302,1.225,2.218
			c0.001,0.002,0,0.004,0.001,0.006c0.021,0.086,0.051,0.162,0.069,0.251c0,0.002,0.001,0.003,0.001,0.004c0,0.001,0,0.001,0,0.001
			c0.339,1.706,0.081,3.986-0.782,6.828c-0.098,0.317-0.408,0.513-0.728,0.475c-0.039-0.005-0.078-0.013-0.118-0.024
			c-0.357-0.109-0.56-0.488-0.452-0.845c0.701-2.303,0.968-4.176,0.827-5.59c-3.901,0.7-5.855,5.069-5.875,5.116
			c-0.12,0.283-0.412,0.442-0.703,0.407c-0.062-0.007-0.124-0.025-0.185-0.051c-0.345-0.144-0.504-0.541-0.359-0.886
			c0.095-0.218,2.22-5.1,6.799-5.948c-0.162-0.383-0.365-0.716-0.637-0.967c-1.729-1.6-5.269-0.239-5.302-0.226
			c-0.353,0.135-0.74-0.037-0.878-0.384C1345.538,557.494,1345.709,557.103,1346.056,556.965z"/>
		<path style="fill:#3A72AA;" d="M1380.693,801.169c0,0-42.365,40.82-154.248,22.117c0,0,1.493-40.906,3.269-80.526
			c0.155-3.406,0.309-6.795,0.464-10.158c0-0.009,0-0.009,0-0.017c1.433-30.868,2.977-58.683,4.041-62.638
			c10.647-39.834,43.909-54.925,58.88-59.807c4.581-1.493,7.447-2.033,7.447-2.033c0,9.875,17.09,16.335,22.993,12.063
			c4.924-3.56,3.123-9.943,3.02-10.295c0-0.009,0-0.009,0-0.009c0.026,0.009,0.052,0.017,0.077,0.026
			c0.043,0.017,0.077,0.034,0.12,0.06c2.368,1.021,4.624,2.188,6.786,3.509c15.1,9.274,25.043,26.004,30.5,49.992
			c1.939,8.502,3.312,17.914,4.153,28.226c0.146,1.793,0.283,3.62,0.395,5.474c0.24,3.869,0.781,8.116,1.527,12.629
			c0.009,0.043,0.009,0.06,0.009,0.06C1374.764,738.188,1387.119,777.25,1380.693,801.169z"/>
		<path style="fill:#C16256;" d="M1313.464,548.796c0.143,0.016,0.292-0.006,0.432-0.073c0.395-0.19,0.563-0.662,0.374-1.058
			c-0.115-0.241-2.902-5.925-10.234-7.181c-0.429-0.075-0.844,0.216-0.918,0.649c-0.074,0.433,0.217,0.843,0.649,0.917
			c6.495,1.112,8.967,6.089,9.069,6.3C1312.959,548.607,1313.202,548.767,1313.464,548.796z"/>
		<path style="fill:#C16256;" d="M1288.645,543.168c0.245,0.028,0.499-0.059,0.678-0.255c2.044-2.246,6.392-2.042,6.436-2.04
			c0.438,0.024,0.813-0.312,0.836-0.75c0.024-0.438-0.311-0.815-0.749-0.837c-0.208-0.012-5.142-0.252-7.698,2.557
			c-0.295,0.324-0.271,0.827,0.053,1.122C1288.328,543.083,1288.484,543.15,1288.645,543.168z"/>
		<path style="fill:#E57D61;" d="M1224.718,664.311c-25.268,25.446-50.678,40.925-73.676,54.857
			c-18.066,10.944-36.255,22.56-55.817,30.706c-8.141,3.367-16.512,6.499-24.833,9.43c-11.659,3.775-7.589,22.167,4.474,20.78
			c34.115-2.942,70.223-10.205,99.523-28.41c23.528-14.619,52.332-30.039,69.455-47.583c16.097-16.493,31.698-42.877,39.51-60.328
			C1295.385,615.675,1249.469,626.792,1224.718,664.311z"/>
		<path style="fill:#3A72AA;" d="M1300.544,608.108c0,0-0.875,3.758-3.029,10.467c-5.07,15.769-17.219,47.838-41.696,85.785
			c-6.838,10.604-15.589,19.998-25.644,28.226c-38.77,31.778-96.964,46.388-139.981,46.92c-2.737,0.034-5.482-0.009-8.21-0.12
			c0,0,3.02-13.787-5.877-22.126c0,0,2.488-1.218,6.572-3.312c14.722-7.576,50.215-26.57,65.091-41.292
			c18.385-18.197,68.12-99.572,144.854-104.325c0.472-0.034,0.944-0.06,1.416-0.086
			C1296.186,608.134,1298.357,608.091,1300.544,608.108z"/>
		<path style="fill:#103663;" d="M1534.786,1035.969c0.336,8.806,0.376,14.029,0.376,14.029s-32.439,14.166-65.855,5.18
			c-2.497-0.662-4.995-1.465-7.486-2.41c-0.934-3.745-1.819-8.003-2.689-12.636c0,0,38.3,10.358,75.648-4.163L1534.786,1035.969z"/>
		<path style="fill:#103663;" d="M1306.574,1144.011c-1.402,8.576-2.26,13.679-2.26,13.679s-33.704,16.102-65.705-4.035
			c0,0,0.174-5.058,0.39-13.604C1238.999,1140.051,1262.48,1157.256,1306.574,1144.011z"/>
		<path style="fill:#23659B;" d="M1082.682,753.946c-4.089,2.096-6.575,3.312-6.575,3.312c8.897,8.342,5.877,22.125,5.877,22.125
			c2.73,0.118,5.475,0.162,8.216,0.12C1090.239,779.192,1092.264,762.044,1082.682,753.946z"/>
		<path style="fill:#23659B;" d="M1546.31,670.929c0,0-2.558,2.215-7.166,5.675l-0.007-0.002
			c-13.175-9.843-10.847-22.871-10.847-22.871l0.028-0.321c2.674-0.697,5.401-1.434,8.19-2.217
			C1536.509,651.193,1535.035,662.684,1546.31,670.929z"/>
		<path style="fill:#C16256;" d="M1293.827,571.6c-1.848,0-3.138-0.338-3.172-0.348c-0.343-0.094-0.544-0.447-0.45-0.79
			c0.094-0.342,0.444-0.544,0.789-0.452c0.34,0.093,8.374,2.169,12.522-5.243c0.174-0.31,0.565-0.42,0.876-0.247
			c0.31,0.174,0.421,0.566,0.247,0.876C1301.714,570.623,1296.966,571.6,1293.827,571.6z"/>
		<path style="fill:#23659B;" d="M1271.658,677.695c-0.575,1.364-18,42.082-41.945,65.066c0.155-3.406,0.309-6.795,0.464-10.158
			c0.008-0.009,0.008-0.017,0.008-0.017S1255.168,706.359,1271.658,677.695z"/>
		<path style="fill:#23659B;" d="M1376.935,711.18c-2.359-0.438-4.624-0.884-6.812-1.338c0,0,0-0.017-0.009-0.06
			c-0.052-0.712-0.635-7.627-1.922-18.06v-0.043c-0.97-7.807-2.325-17.588-4.153-28.209c0-0.009,0-0.009,0-0.017l-0.026-0.154
			C1364.014,663.299,1370.191,683.735,1376.935,711.18z"/>
		<path style="fill:#23659B;" d="M1333.549,612.758c0,0.232,0,0.463-0.009,0.703c-0.026,1.999-0.292,4.178-1.03,6.229
			c-1.673,4.693-5.782,8.708-15.065,8.331c-10.226-0.412-16.335-4.873-19.93-9.446c-2.531-3.217-3.818-6.477-4.418-8.434
			c-0.326-1.047-0.455-1.724-0.472-1.81c0-0.008,0-0.008,0-0.008l1.416-0.077c2.145-0.112,4.315-0.154,6.503-0.137
			c0,9.875,17.09,16.335,22.993,12.063c4.924-3.56,3.123-9.943,3.02-10.295c-0.009,0,0-0.009,0-0.009
			c0.026,0.009,0.052,0.017,0.077,0.026C1327.115,610.09,1329.577,611.077,1333.549,612.758z"/>
	</g>
	<g id="_x32_">
		<path style="fill:#F99370;" d="M1053.944,767.923c0,0-18.135-1.079-29.199,8.094c-11.064,9.173-18.27,24.445-18.27,24.445
			s12.461,2.66,13.58,8.85c0,0,14.559-12.141,19.632-20.316C1044.758,780.821,1053.944,767.923,1053.944,767.923z"/>
		<path style="fill:#C92828;" d="M816.348,758.35c0,0-27.223-27.263-64.661,15.166c-37.438,42.428-14.075,42.373-73.049,63.997
			c-49.056,17.987-63.518,73.048,1.363,89.104c62.028,15.35,101.484-34.383,138.601-31.837c37.117,2.546,41.64-76.95,29.821-97.001
			C836.602,777.727,816.348,758.35,816.348,758.35z"/>
		<path style="fill:#F99370;" d="M831.197,924.823c39.324,4.322,81.335-0.675,115.701-21.74
			c37.513-25.155,68.602-61.944,82.61-105.214c1.939-5.625-3.89-11.405-9.468-9.489c-0.177,0.205-7.764,2.107-7.74,2.561
			c-2.419,3.521-4.984,6.938-7.66,10.281c-34.587,42.27-84.463,77.18-141.347,72.816c-8.491-0.172-17.011-0.821-25.416-1.898
			C803.353,868.433,796.749,919.753,831.197,924.823z"/>
		<path style="fill:#9358E0;" d="M943.052,904.807c0,0-0.18,3.775-2.454,7.996c0,0,0,0-0.009,0
			c-8.588,13.401-41.798,21.054-72.616,20.745c-3.251-0.026-6.469-0.146-9.635-0.352c-4.075-0.274-8.056-0.695-11.865-1.278
			c-1.939-14.954-13.564-51.184-15.469-66.009c10.45-1.253,28.483,2.805,46.002,4.041c17.914,2.617,32.473-10.638,44.527-4.624
			C921.535,865.325,920.342,893.68,943.052,904.807z"/>
		<path style="fill:#F99370;" d="M578.497,1248.097c0,0,20.694-3.096,37.482-7.871l6.076,36.799l-39.184-1.978
			C582.87,1275.047,570.383,1265.086,578.497,1248.097z"/>
		<path style="fill:#F99370;" d="M793.129,1398.976l3.245-24.071l32.302,0.303c0,0-4.259,10.518-8.253,24.067
			C820.422,1399.276,806.474,1411.098,793.129,1398.976z"/>
		<path style="fill:#C92828;" d="M816.415,758.743c35.821-10.622,34.756,48.414,31.273,59.995L816.415,758.743z"/>
		<path style="fill:#1D3F70;" d="M559.409,1247.7c-2.133,0.616-4.15,1.56-5.879,2.962l10.548,64.995
			c0.513,3.16,3.994,4.943,6.804,3.411c0.033-0.018,0.067-0.037,0.1-0.055c6.425-3.533,15.208-13.853,11.888-43.966
			c0,0-4.687-9.7-4.374-26.95C578.497,1248.097,568.056,1245.19,559.409,1247.7z"/>
		<path style="fill:#395B96;" d="M570.982,1319.013l-11.573-71.313c-2.133,0.616-4.15,1.56-5.879,2.962l10.548,64.995
			c0.513,3.16,3.994,4.943,6.804,3.411L570.982,1319.013z"/>
		<path style="fill:#1D3F70;" d="M789.472,1417.72c0.242,2.208,0.827,4.357,1.911,6.301l65.825,0.723
			c3.201,0.035,5.552-3.09,4.523-6.122c-0.012-0.036-0.025-0.072-0.037-0.108c-2.381-6.936-11.043-17.358-41.273-19.237
			c0,0-10.356,2.96-27.293-0.3C793.129,1398.976,788.479,1408.769,789.472,1417.72z"/>
		<path style="fill:#395B96;" d="M861.695,1418.513l-72.222-0.793c0.242,2.208,0.827,4.357,1.911,6.301l65.825,0.723
			c3.201,0.035,5.552-3.09,4.523-6.122L861.695,1418.513z"/>
		<path style="fill:#E8C0A6;" d="M598.905,1280.491c3.028,0.635,6.407,1.191,10.092,1.656c0,0,0.011,0,0.023,0.011
			c46.823,6.021,142.713-1.429,177.096-38.329v-0.011c4.695-4.899,9.038-10.025,13.041-15.332
			c30.346-40.177,41.686-91.275,45.473-142.373c1.315-17.702,1.724-35.392,1.701-52.64c-6.656-39.1-42.581-50.542-70.897-40.983
			c-22.192,7.473-39.724,27.84-34.859,57.868v-0.125c8.505,24.335,10.229,46.981,6.43,67.608
			c-11.034,59.784-68.482,102.547-141.692,119.807c-3.958,0.93-7.961,1.792-11.997,2.574
			C593.315,1240.223,588.404,1263.118,598.905,1280.491z"/>
		<path style="fill:#D1A68F;" d="M789.477,1022.578l51.561,83.768l1.759-0.973c0.799-6.901,1.448-13.951,1.947-21.163
			c0.35-4.754,0.624-9.583,0.849-14.475c0.487-10.519,0.724-21.338,0.736-32.469l-17.657-4.966L789.477,1022.578z"/>
		<path style="fill:#D1A68F;" d="M779.224,1250.205c0,0,13.265-11.163,19.933-21.719c18.865-29.867,19.838-32.19,30.32-66.68
			l-12.117-66.921l-70.677-4.492c0.574,14.45,3.083,20.735-2.979,40.761C743.704,1131.153,780.846,1162.869,779.224,1250.205z"/>
		<path style="fill:#E8C0A6;" d="M727.602,1096.115c6.527,7.65,13.483,14.436,19.402,21.727
			c29.008,35.698,45.179,72.519,52.152,110.644c8.131,44.316,3.833,90.391-7.122,138.506c-0.862,3.776-1.757,7.553-2.699,11.351
			c0,0,26.855,8.997,41.81,2.325c1.588-3.357,3.141-6.691,4.649-10.002v-0.011c44.702-97.637,57.89-173.739,8.834-284.542
			c-9.65-21.795-21.704-44.94-36.413-69.865c-10.308-12.61-21.625-20.219-32.784-23.757
			C728.736,977.658,681.596,1042.192,727.602,1096.115z"/>
		<path style="fill:#9358E0;" d="M845.839,1027.518c0.489,6.769,0.489,10.047,0.489,10.047
			c-86.977,17.468-134.404-6.923-134.404-6.923c-0.523,0.18-0.463-2.9,0.069-8.262c1.072-10.75,4.032-30.663,8.022-51.776
			c0.712-3.758,1.458-7.55,2.231-11.35c5.405-26.553,12.174-52.763,18.626-63.204c13.049-36.728,57.619-42.862,85.879-31.246
			c4.41,1.622,26.004,39.465,30.534,54.187c7.644,24.846-18.471,43.66-15.22,75.052
			C844.252,1009.287,845.325,1020.354,845.839,1027.518z"/>
		<path style="fill:#7640CC;" d="M794.356,865.6c1.161,1.123,2.059,2.096,1.048,3.831c-1.784,3.07-0.187,10.919,4.143,12.453
			c0.973,0.349,2.096,0.375,3.357-0.062c6.801-2.333,7.013,0.636,12.216,6.152c5.203,5.528,10.519,2.558,12.541-2.121
			c2.021-4.667,6.476-1.697,7.737-7.225c0.312-1.36,0.262-2.671,0-3.881c-0.661-3.194-4.393-8.842-4.393-8.842
			s-3.931-1.241-4.255-1.104c-10.419-5.89-22.935-6.95-34.765-5.154c0,0,0,0-0.013,0C791.349,862.805,793.021,864.302,794.356,865.6
			z"/>
		<path style="fill:#F99370;" d="M829.297,846.003l-2.612,18.824c0,0,5.606,13.795-6.678,12.744
			c-17.5-1.498-20.79-18.646-20.79-18.646l2.761-15.244L829.297,846.003z"/>
		<path style="fill:#E57D61;" d="M801.979,843.681l-1.235,6.816c10.957,6.651,24.681,6.159,27.103,5.955l1.45-10.449
			L801.979,843.681z"/>
		<path style="fill:#F99370;" d="M849.828,839.048c-9.244,10.425-24.149,14.017-36.331,12.037
			c-5.065-0.741-9.851-2.531-13.914-5.566l-0.015,0.003c-16.572-13.749-22.853-42.835-14.44-61.952
			c12.168-28.039,47.072-25.437,56.358,3.84c1.796,4.402,5.034,9.183,8.938,12.669C860.777,809.504,861.581,825.064,849.828,839.048
			z"/>
		<path style="fill:#F9F8F3;" d="M841.324,823.554l-16.332-7.329c0,0-0.506,8.733,5.912,10.77
			C837.038,828.943,841.324,823.554,841.324,823.554z"/>
		<path style="fill:#E57D61;" d="M790.418,823.832c0,0,1.448,11.767,12.008,23.547c-0.986-0.561-1.933-1.184-2.843-1.859
			l-0.015,0.003c-16.571-13.75-22.855-42.834-14.44-61.952c6.192-16.406,26.664-26.265,43.153-14.696
			c0,0,8.421,24.797-36.504,46.409L790.418,823.832z"/>
		<path style="fill:#C16256;" d="M828.158,802.613c0.414-0.928-0.003-2.017-0.932-2.431c-0.928-0.414-2.016,0.003-2.43,0.931
			c-0.414,0.928,0.003,2.017,0.931,2.431C826.656,803.958,827.744,803.541,828.158,802.613z"/>
		<path style="fill:#C92828;" d="M823.548,765.689c0,0,7.172,26.138-33.394,45.398l-10.177,6.214c0,0-8.952-17.596-1.946-38.319
			C785.037,758.259,817.8,750.113,823.548,765.689z"/>
		<path style="fill:#C16256;" d="M843.476,799.232c0.414-0.928-0.003-2.017-0.931-2.431c-0.928-0.414-2.016,0.003-2.43,0.931
			c-0.414,0.928,0.003,2.017,0.931,2.431C841.974,800.578,843.062,800.161,843.476,799.232z"/>
		<path style="fill:#C16256;" d="M841.442,824.24c-0.132,0.022-0.271,0.007-0.402-0.051l-16.332-7.329
			c-0.352-0.157-0.508-0.57-0.351-0.921c0.156-0.35,0.571-0.507,0.92-0.35l16.332,7.329c0.352,0.157,0.508,0.57,0.351,0.921
			C841.862,824.058,841.662,824.203,841.442,824.24z"/>
		<path style="fill:#C16256;" d="M839.506,815.396c-1.071,0.183-2.172,0.181-3.116-0.07c-0.371-0.099-0.593-0.48-0.495-0.852
			c0.1-0.374,0.484-0.593,0.852-0.494c2.369,0.629,5.611-0.708,6.007-1.786c0.14-0.38-0.378-0.722-0.839-0.942
			c-4.049-1.937-7.074-9.266-7.201-9.577c-0.145-0.356,0.026-0.762,0.382-0.908c0.366-0.151,0.762,0.027,0.908,0.382
			c0.028,0.072,2.948,7.142,6.512,8.846c1.943,0.929,1.728,2.184,1.546,2.681C843.585,813.971,841.602,815.038,839.506,815.396z"/>
		<path style="fill:#F99370;" d="M774.805,818.975c1.528,5.767,6.526,9.446,11.165,8.217c4.639-1.229,7.161-6.9,5.633-12.668
			c-1.528-5.767-6.526-9.446-11.165-8.217C775.8,807.536,773.278,813.207,774.805,818.975z"/>
		<path style="fill:#C16256;" d="M785.538,810.68c-15.865-4.818-2.793,23.019-6.737,4.242c4.057,0.502,6.286,4.944,6.31,4.992
			c3.481,1.705-0.935-5.897-6.052-6.369C779.973,809.472,787.934,813.769,785.538,810.68z"/>
		<path style="fill:#F4D4BE;" d="M782.73,824.956c0.044,0.862,0.778,1.526,1.64,1.482c0.862-0.044,1.526-0.778,1.482-1.641
			c-0.044-0.862-0.778-1.526-1.64-1.482C783.35,823.359,782.686,824.093,782.73,824.956z"/>
		<path style="fill:#F99370;" d="M653.251,1090.867c-3.857,0.419-3.357-8.777-5.667-11.459c-3.234,5.329-4.952,11.636-4.991,11.653
			c-0.645,7.696-0.873,15.412-0.752,23.142c-5.782,10.218-5.669-19.331-6.186-22.229c-0.038-0.006-0.076-0.014-0.114-0.02
			c-2.342,7.741-4.264,15.625-5.51,23.619c-8.255,9.174-0.962-22.948-0.587-25.988c-0.016-0.01-0.033-0.02-0.049-0.03
			c-3.435,6.908-6.028,14.241-7.807,21.753c-9.14,8.504,0.8-23.552,2.156-26.341c-0.022-0.022-0.043-0.044-0.064-0.066
			c-3.488,5.033-6.333,10.51-8.876,16.087c-9.65,6.699,2.891-19.807,4.41-22.229c0.211-2.194,6.133-14.614,13.009-24.688
			c2.549-3.734,17.633-3.068,19.178,1.097c1.448,3.905,3.019,16.887,3.25,18.926
			C655.745,1077.993,657.201,1088.375,653.251,1090.867z"/>
		<path style="fill:#7640CC;" d="M913.684,871.214c2.101,7.111-4.529,7.391-0.791,14.601c3.738,7.21,10.87,3.774,13.367,16.914
			c2.455,12.949,13.981,10.166,14.326,10.075c0.012,0.003,0.012,0.003,0.012,0.003c2.271-4.222,3.341-7.961,3.341-7.961
			c-22.715-11.123-22.409-39.84-22.409-39.84c-2.781-2.21-6.34-1.995-10.472-1.008C911.9,866.082,912.95,868.706,913.684,871.214z"
			/>
		<path style="fill:#C16256;" d="M819.388,798.24c0.093-0.016,0.187-0.047,0.275-0.092c5.704-2.971,8.93-8.117,9.065-8.334
			c0.271-0.439,0.135-1.015-0.303-1.288c-0.44-0.271-1.015-0.135-1.289,0.302c-0.031,0.049-3.105,4.933-8.339,7.659
			c-0.458,0.239-0.635,0.804-0.397,1.263C818.593,798.12,818.998,798.307,819.388,798.24z"/>
		<path style="fill:#C16256;" d="M842.393,791.054c0.43-0.073,0.763-0.442,0.776-0.895c0.015-0.516-0.391-0.948-0.907-0.963
			c-0.037-0.002-3.728-0.145-6.941-2.555c-0.414-0.312-1.001-0.224-1.311,0.187c-0.31,0.414-0.227,1,0.187,1.31
			c3.705,2.779,7.837,2.923,8.011,2.928C842.272,791.069,842.333,791.064,842.393,791.054z"/>
		<path style="fill:#D1A68F;" d="M792.035,1366.992c-0.862,3.776-1.757,7.553-2.699,11.351c0,0,26.344,9.508,41.81,2.325
			c1.588-3.357,3.141-6.691,4.649-10.002C835.796,1370.666,822.517,1378.026,792.035,1366.992z"/>
		<path style="fill:#D1A68F;" d="M598.905,1280.491c3.028,0.635,6.407,1.191,10.092,1.656c0,0-9.162-14.969-3.685-44.498
			c-3.958,0.93-7.961,1.792-11.997,2.574C593.315,1240.223,588.404,1263.118,598.905,1280.491z"/>
		<path style="fill:#F99370;" d="M773.836,916.414c-51.273,24.053-73.348,51.347-99.133,100.373
			c-8.145,15.07-15.753,30.623-22.467,46.402c-4.821,12.029-23.902,5.622-20.519-6.836c9.279-37.675,23.934-73.62,42.922-107.564
			c18.596-31.273,47.035-55.822,78.641-73.254C780.738,861.489,801.551,902.69,773.836,916.414z"/>
		<path style="fill:#9358E0;" d="M768.248,925.484c-17.528,4.384-32.37,27.531-43.695,35.415c-3.921,2.728-7.541,4.478-10.604,5.602
			c-5.765,2.11-9.532,1.982-9.532,1.982c-6.572-18.403-27.84-22.898-27.84-22.898c-3.44-3.397-5.053-7.464-5.13-12.02
			c-0.317-16.927,22.111-36.639,49.384-57.436c33.374-25.455,68.339-16.068,68.339-16.068
			C804.939,889.867,785.767,921.108,768.248,925.484z"/>
		<path style="fill:#7640CC;" d="M784.197,906.721c-1.699,2.805-28.085,47.59-64.762,66.979c0.712-3.758,1.313-7.04,2.085-10.841
			C721.52,962.859,760.998,940.455,784.197,906.721z"/>
		<path style="fill:#7640CC;" d="M867.974,933.548c-3.251-0.026-6.469-0.146-9.635-0.352c-0.703-19.295-9.18-32.936-9.446-33.356
			C859.06,911.028,864.988,924.883,867.974,933.548z"/>
		<path style="fill:#7640CC;" d="M713.949,966.502c-5.765,2.11-9.532,1.982-9.532,1.982c-6.572-18.403-27.84-22.898-27.84-22.898
			c-3.44-3.397-5.053-7.464-5.13-12.02c6.452-0.472,7.987,8.717,13.898,9.377c5.911,0.652,8.983-2.025,13.581,1.064
			c4.599,3.097,2.188,10.107,5.911,14.267C708.561,962.435,713.906,959.475,713.949,966.502z"/>
		<path style="fill:#7640CC;" d="M846.328,1037.564c-86.977,17.468-134.404-6.923-134.404-6.923c-0.523,0.18-0.463-2.9,0.069-8.262
			c3.663-0.661,8.305-0.369,12.998,2.926c10.295,7.224,5.439,9.858,18.051,9.412c12.62-0.438,7.799-5.474,15.683-2.188
			c7.884,3.286,8.983,9.197,16.429,7.447c7.447-1.75,6.357-4.813,11.942-3.938c5.585,0.875,9.746,6.332,17.193,4.255
			c7.447-2.068,8.391-7.524,13.615-7.207c5.225,0.318,9.823,4.916,14.422,4.041c4.041-0.772,6.778-8.125,13.512-9.609
			C846.328,1034.287,846.328,1037.564,846.328,1037.564z"/>
	</g>
	<g id="_x31_">
		<path style="fill:#E57D61;" d="M1555.199,643.503c0,0,9.613-15.416,23.497-19.132c13.884-3.716,32.895-0.393,32.895-0.393
			s-5.399,4.585-3.367,19.627c0,0-17.986,1.056-27.588,0.463C1571.034,643.475,1555.199,643.503,1555.199,643.503z"/>
		<path style="fill:#662948;" d="M1747.537,418.048c0,0-13.678-0.32-21.201,14.262c-8.935,17.318,2.417,30.427-0.969,42.079
			c-3.387,11.652-9.228,19.931-4.645,31.606c4.583,11.675-3.007,18.969,0.933,28.568c3.941,9.599,9.851,9.284,9.591,22.169
			c-0.26,12.886,11.042,23.866,21.438,16.224c10.396-7.643,16.158,9.109,32.768-1.344c16.61-10.453,17.295-22.761,36.571-26.233
			c19.276-3.472,11.627-30.239,27.97-40.196c16.343-9.956,14.927-25.645,1.253-36.325s-22.548-13.33-32.498-39.092
			C1807.55,400.773,1765.776,388.24,1747.537,418.048z"/>
		<path style="fill:#E57D61;" d="M1804.158,554.19c-13.887,37.698-36.566,78.98-77.446,92.063
			c-38.979,9.452-79.166,5.173-117.838-2.609c-14.176-0.541-15.094-19.947-0.547-19.849c34.751,1.57,71.297,1.58,104.622-8.87
			c29.485-10.918,42.719-45.108,53.11-72.718C1774.046,516.692,1812.236,528.606,1804.158,554.19z"/>
		<path style="fill:#EB5648;" d="M1795.332,607.43c-1.965,4.624-4.229,8.948-6.735,12.989c-4.058,6.537-8.751,12.32-13.924,17.407
			c-0.969,0.969-1.965,1.905-2.977,2.814c-21.191,19.175-49.168,27.454-72.453,27.917c-25.867,0.515-61.951-7.979-78.612-16.627
			c-5.156-2.677-8.459-5.371-9.008-7.816c-2.334-10.33,2.917-20.033,2.917-20.033c1.699-2.025,5.379-3.655,10.27-5.002
			c17.399-4.804,50.112-6.057,63.333-9.017c16.944-3.801,43.223-13.727,58.708-47.607c9.274-20.299,19.012-30.311,25.318-35.064
			c4.221-3.183,7.16-3.956,7.16-3.956s10.59,12.715,16.922,31.538c0.48,1.416,0.935,2.874,1.347,4.358
			C1801.569,573.37,1802.659,590.212,1795.332,607.43z"/>
		<path style="fill:#CE3932;" d="M1788.597,620.42c-4.822,7.773-10.552,14.482-16.901,20.221
			c-4.959-6.314-14.516-20.402-15.82-36.728c-1.785-22.212,14.49-48.43,14.49-48.43L1788.597,620.42z"/>
		<path style="fill:#F99370;" d="M2027.69,1077.594l51.954-42.675c-1.385-3.498-14.26-13.954-17.567-18.999
			c-1.57-1.979-18.019-21.085-19.416-23.196l-19.383-18.505l-22.903,18.812l36.377,34.458c4.315,4.087,5.108,10.655,1.918,15.672
			c-6.593,11.517-18.909,18.703-18.972,31.25C2020.148,1078.251,2024.704,1080.047,2027.69,1077.594z"/>
		<path style="fill:#1D3F70;" d="M2077.115,1028.621c1.231,1.93,2.147,4.035,2.53,6.298l-52.46,43.09
			c-2.551,2.095-6.458,1.102-7.589-1.998c-2.626-7.258-2.413-21.097,20.729-42.224c0,0,10.237-4.31,21.752-17.867
			C2062.078,1015.921,2072.137,1020.787,2077.115,1028.621z"/>
		<path style="fill:#395B96;" d="M2019.557,1075.9l57.559-47.279c1.231,1.93,2.147,4.035,2.53,6.298l-52.46,43.09
			C2024.602,1080.138,2020.623,1079.071,2019.557,1075.9z"/>
		<path style="fill:#F99370;" d="M1774.593,511.474l4.736,11.965c0,0,6.338,70.927,18.442,70.915
			c21.432-0.023,7.266-76.287,8.386-80.489c0,0-3.896-7.962-5.228-11.821L1774.593,511.474z"/>
		<path style="fill:#F99370;" d="M1769.509,1093.636l67.233,0.106c1.155-3.58-2.131-19.837-1.475-25.834
			c0.047-2.525,0.869-16.345,1.133-18.862l-4.556-37.993l-29.638-0.047l6.16,49.726c0.731,5.898-2.834,11.471-8.486,13.314
			c-12.412,4.695-26.487,2.408-34.514,12.052C1763.27,1089.347,1765.644,1093.63,1769.509,1093.636z"/>
		<path style="fill:#1D3F70;" d="M1838.796,1087.274c-0.278,2.272-0.909,4.479-2.053,6.469l-67.888-0.107
			c-3.301-0.005-5.685-3.257-4.585-6.368c2.589-7.271,11.554-17.816,42.849-19.403c0,0,10.641,3.184,28.149,0.045
			C1835.268,1067.91,1839.936,1078.062,1838.796,1087.274z"/>
		<path style="fill:#395B96;" d="M1764.309,1087.157l74.487,0.118c-0.278,2.272-0.909,4.479-2.053,6.469l-67.888-0.107
			C1765.508,1093.635,1763.115,1090.282,1764.309,1087.157z"/>
		<path style="fill:#E57D61;" d="M1793.19,474.149c0.109,0.479,0.205,0.97,0.269,1.455c-0.761-0.17,3.833,16.954,8.388,28.917
			c-9.287,9.404-22.564,12.145-25.037,12.551c-6.034-15.053-10.029-29.584-11.115-39.1
			C1764.647,461.569,1789.724,458.109,1793.19,474.149z"/>
		<path style="fill:#F99370;" d="M1803.814,455.121c3.416,12.227,5.491,26.826-0.027,38.5l-0.015,0.007
			c-15.11,33.57-80.289,22.338-68.192-17.139c4.329-10.446,0.234-23.528,3.049-33.232
			C1749.684,406.105,1796.54,423.28,1803.814,455.121z"/>
		<path style="fill:#F9F8F3;" d="M1757.273,490.67l8.549-7.234C1768.089,489.125,1762.822,494.325,1757.273,490.67z"/>
		<path style="fill:#C16256;" d="M1757.133,468.143c-1.954-1.498,0.444-4.531,2.353-2.978
			C1761.44,466.663,1759.042,469.697,1757.133,468.143z"/>
		<path style="fill:#C16256;" d="M1741.523,472.391c-1.954-1.497,0.444-4.531,2.353-2.978
			C1745.83,470.911,1743.432,473.945,1741.523,472.391z"/>
		<path style="fill:#C16256;" d="M1757.322,491.103c0.273,0.043,8.558-7.238,8.781-7.335c0.183-0.155,0.207-0.43,0.051-0.614
			c-0.202-1.062-8.905,7.242-9.162,7.183C1756.661,490.597,1756.912,491.166,1757.322,491.103z"/>
		<path style="fill:#1D3F70;" d="M1778.86,1031.168c1.064,7.904,1.777,12.236,1.777,12.236c28.35,9.433,66.236,11.49,91.49,1.86
			c-20.758-71.974-12.306-267.598,2.414-291.719c0,0,51.599,172.885,103.408,269.503c2.191,4.083,4.382,8.019,6.567,11.79
			c0,0,58.936,0.682,89.28-51.707c0,0-3.217-3.796-8.3-10.681c-15.248-20.643-47.306-62.72-60.006-120.083
			c-28.293-127.822-61.274-186.044-85.433-208.376c-33.414-30.879-102.535,6.038-124.822,50.299
			C1764.09,792.538,1766.656,950.576,1778.86,1031.168z"/>
		<path style="fill:#C16256;" d="M1752.887,485.246c1.065-0.481,3.584-1.159,2.858-2.57c-0.268-0.293-0.726-0.311-1.015-0.044
			c-1.864,1.709-5.466,2.041-6.344,1.247c-0.309-0.28,0.001-0.84,0.316-1.262c2.808-3.522,2.8-15.986,0.564-12.053
			c0.007,0.08,0.726,7.931-1.714,11.193C1745.054,485.98,1749.779,486.174,1752.887,485.246z"/>
		<path style="fill:#E57D61;" d="M1803.814,455.121c3.416,12.227,5.491,26.826-0.027,38.5l-0.015,0.007
			c2.13-8.483-1.146-23.754-1.146-23.754l-5.195-5.068c-45.409,5.481-56.414-27.712-56.414-27.712
			C1756.149,406.404,1796.986,426.661,1803.814,455.121z"/>
		<path style="fill:#662948;" d="M1743.667,432.229c0,0,11.257,32.759,52.556,29.287l9.463-12.861
			C1806.861,418.649,1767.987,393.347,1743.667,432.229z"/>
		<path style="fill:#F99370;" d="M1813.697,457.535c3.368,14.057-14.423,18.111-17.474,3.979
			C1792.855,447.459,1810.647,443.405,1813.697,457.535z"/>
		<path style="fill:#C16256;" d="M1810.746,462.133c1.381-4.046-2.283-9.209-4.134-9.534c-3.522-0.855-7.612,2.375-6.669,3.517
			c1.417,0.914,2.758-3.044,6.227-2.151C1809.63,454.678,1808.708,461.76,1810.746,462.133z"/>
		<path style="fill:#C16256;" d="M1804.237,464.03c1.3-0.687-0.448-5.759,4.436-8.64c0.348-0.19,0.477-0.626,0.287-0.974
			C1804.116,453.37,1801.928,465.424,1804.237,464.03z"/>
		<path style="fill:#F4D4BE;" d="M1809.322,466.789c0.904,1.886-2.08,3.262-2.928,1.35
			C1805.49,466.253,1808.474,464.877,1809.322,466.789z"/>
		<path style="fill:#EB5648;" d="M1920.059,643.996c-31.418,26.09-79.556,53.741-124.829,50.292c0,0.009-6.229-3.294-5.774-12.56
			c1.047-21.294-6.855-32.962-14.782-43.9c-10.741-14.799-21.543-28.252-10.321-62.398c2.771-8.348,6.838-22.624,10.184-34.892
			c1.845-6.786,3.72-12.887,4.793-17.099c6.563,26.261,12.383,34.773,16.922,31.538c4.942-3.509,8.082-21.011,8.099-44.921
			c2.934-0.48,5.851-0.678,8.742-0.6c35.27,0.875,67.631,41.567,92.914,89.551c2.342,4.444,4.624,8.948,6.838,13.487
			c1.433,2.17,2.9,4.453,4.247,6.803c1.982,3.483,3.689,7.129,4.564,10.827C1922.752,634.739,1922.572,639.431,1920.059,643.996z"/>
		<path style="fill:#163356;" d="M1977.949,1023.047c2.191,4.083,4.382,8.019,6.567,11.79c0,0,58.936,0.682,89.28-51.707
			c0,0-3.217-3.796-8.3-10.681C2065.497,972.449,2038.917,1016.659,1977.949,1023.047z"/>
		<path style="fill:#C16256;" d="M1762.203,460.451c-0.277,0.133-0.615,0.115-0.885-0.074c-4.422-3.113-8.072-2.447-8.108-2.441
			c-0.474,0.092-0.936-0.215-1.031-0.688c-0.095-0.473,0.205-0.935,0.682-1.032c0.177-0.037,4.389-0.851,9.468,2.725
			c0.396,0.279,0.491,0.826,0.212,1.222C1762.451,460.292,1762.334,460.388,1762.203,460.451z"/>
		<path style="fill:#C16256;" d="M1738.918,465.308c-0.326,0.156-0.73,0.1-1-0.171c-0.342-0.342-0.343-0.896-0.002-1.239
			c0.074-0.075,1.867-1.852,6.798-4.798c0.422-0.254,0.955-0.113,1.203,0.303c0.248,0.416,0.113,0.954-0.303,1.203
			c-4.704,2.81-6.439,4.514-6.455,4.531C1739.086,465.21,1739.005,465.266,1738.918,465.308z"/>
		<path style="fill:#CE3932;" d="M1921.334,641.126c0,0-66.705,52.186-128.145,51.538c0,0-0.519,1.731,0.981,5.054
			c0,0,60.932,6.366,128.547-51.158C1922.717,646.56,1924.787,643.34,1921.334,641.126z"/>
		<path style="fill:#163356;" d="M1858.469,1049.092c8.825-1.773,13.659-3.827,13.659-3.827
			c-10.629-58.056-12.626-107.495-12.321-150.557c0.64-86.881,14.734-141.162,14.734-141.162s-9.208-4.85-12.8-13.222
			C1861.742,740.325,1821.694,906.825,1858.469,1049.092z"/>
		<path style="fill:#163356;" d="M1778.859,1031.168c1.062,7.903,1.781,12.238,1.781,12.238c28.345,9.429,66.234,11.49,91.489,1.859
			c-0.656-3.577-1.281-7.138-1.882-10.66C1870.246,1034.605,1822.796,1045.046,1778.859,1031.168z"/>
		<path style="fill:#CE3932;" d="M1921.654,630.123c-7.086-8.862-21.963-23.936-47.178-34.146
			c-37.672-15.254-48.247-47.78-48.247-47.78l79.776,50.808c2.342,4.444,4.624,8.948,6.838,13.487
			C1916.395,617.88,1920.187,623.929,1921.654,630.123z"/>
		<path style="fill:#F99370;" d="M1858.266,515.742c28.174,18.944,56.137,38.742,80.553,62.479
			c18.056,19.215,31.073,42.351,42.188,65.94c2.96,10.521,18.818,28.77,4.218,35.972c-9.941,3.616-13.632-8.095-18.069-14.455
			c-6.415-10.09-13.29-20.058-20.434-29.557c-9.787-12.815-20.461-25.525-32.84-35.381c-8.048-6.124-17.851-12.864-26.29-18.567
			c-16.322-10.866-34.384-22.392-50.978-32.867C1814.515,534.796,1835.838,501.557,1858.266,515.742z"/>
		<path style="fill:#F99370;" d="M1970.772,699.536c3.324,0.964,3.331-8.744,5.326-11.253c3.242,5.137,5.023,11.25,5.06,11.266
			c0.76,7.484,1.113,14.995,1.126,22.524c-0.054,2.413,3.726,2.673,3.972,0.241c0.895-7.289,1.473-14.641,1.676-21.991
			c0.037-0.006,0.074-0.015,0.111-0.021c2.414,7.5,4.42,15.146,5.77,22.91c8.101,9.33,0.576-22.69,0.129-25.318
			c0.016-0.01,0.032-0.02,0.047-0.03c3.464,6.67,6.115,13.768,7.977,21.056c9.023,8.466-1.188-23.126-2.549-25.617
			c0.021-0.022,0.041-0.043,0.061-0.065c3.484,4.843,6.349,10.13,8.922,15.52c9.432,6.548-2.967-18.881-4.399-21.103
			c-0.816-2.795-5.335-11.806-14.685-22.392c-2.911-3.306-13.9,2.266-15.333,6.347c-1.344,3.826-1.714,9.345-1.903,11.335
			C1971.099,686.243,1966.922,697.897,1970.772,699.536z"/>
		<path style="fill:#EB5648;" d="M1987.321,657.439c0,0-8.185,12.74-18.145,10.947c-0.978-0.18-4.161-1.544-8.408-4.127
			c-6.375-3.878-15.16-10.501-22.512-19.964c-5.456-7.009-11.496-15.735-21.165-25c-9.935-9.497-21.24-24.313-42.105-33.639
			c-29.453-13.161-42.2-22.349-52.727-45.239c-4.187-9.111-16.88-15.967-17.909-30.363c0,0,3.123-1.253,8.674-2.514
			c13.658-3.089,42.004-6.211,74.409,9.334c39.139,18.763,94.759,87.02,101.065,124.778
			C1989.534,647.856,1989.234,653.235,1987.321,657.439z"/>
		<path style="fill:#CE3932;" d="M1812.199,544.776c-0.738,9.403-0.842,16.255-4.341,18.12c-4.517,2.407-8.631-1.664-10.261-3.56
			c-0.523-0.609-0.807-1.038-0.807-1.038s-2.191,13.796-10.405,8.539c-6.334-4.054-9.653-16.887-11.85-26.298
			c-1.681-7.25-2.368-13.143-2.368-13.143c4.236-3.436,7.16-3.956,7.16-3.956c6.563,26.261,12.383,34.773,16.922,31.538
			c4.942-3.509,8.082-21.011,8.099-44.921c0,0,3.123-1.253,8.674-2.514c0.026,0,0.043,0,0.043,0s0.009,0.686,0.026,1.913
			C1813.16,514.997,1813.246,531.529,1812.199,544.776z"/>
		<path style="fill:#CE3932;" d="M1620.631,651.931c-5.156-2.677-8.459-5.371-9.008-7.816c-2.334-10.33,2.917-20.033,2.917-20.033
			c1.699-2.025,5.379-3.655,10.27-5.002C1624.809,619.081,1615.106,636.042,1620.631,651.931z"/>
		<path style="fill:#CE3932;" d="M1987.321,657.439c0,0-8.185,12.74-18.145,10.947c-0.978-0.18-4.161-1.544-8.408-4.127
			c1.167-1.236,16.764-4.247,27.728-22.607C1989.534,647.856,1989.234,653.235,1987.321,657.439z"/>
	</g>
</g>
</svg>
